<svg xmlns="http://www.w3.org/2000/svg" viewBox="0 0 43.74 49.91"><defs><style>.cls-1{fill:#f68820;}</style></defs><title>Asset 3</title><g id="Layer_2" data-name="Layer 2"><g id="Layer_1-2" data-name="Layer 1"><path class="cls-1" d="M14,11.53c4.3-2.1,9.46-1.54,8.88-.52-.26.46,1.52,1,1.78.58,1-1.71-1.7-2.08-2.79-2.14a14.29,14.29,0,0,0-8,1.92c-.43.29-.35.45.09.16Z"/><path class="cls-1" d="M14,9.05c3.55-2,9.31-1.42,8.74-.4-.26.46,1.65.95,1.91.49,1-1.7-1.7-2.08-2.79-2.14a13.52,13.52,0,0,0-8,1.92c-.44.29-.34.43.1.13Z"/><path class="cls-1" d="M20.4.19c-1,1.22-2.41,3-1.93,4.69a2.54,2.54,0,0,0,2.16,1.74c.51.08,1.24-1.61.72-1.69-3-.44-2-2.9-.85-4.19.63-.69.24-.95-.1-.55Z"/><path class="cls-1" d="M27.18,11.92a10.15,10.15,0,0,1,.08,7.1c-.68,1.75-1.66,3.22-1.08,5.17.66,2.22,2.79,3.5,4,5.42a7.81,7.81,0,0,1,1,6.12c-1.08,3.92-4.94,5.74-8.81,4.83a6.86,6.86,0,0,1-4.61-3.15A6.92,6.92,0,0,1,18,30.73c.3-.44.1-.71-.19-.27-1.85,2.73-2.06,6.16.32,8.66a9,9,0,0,0,9.67,1.8,7.64,7.64,0,0,0,4.32-6,8.33,8.33,0,0,0-.7-4.69,11.6,11.6,0,0,0-1.54-2.45,20,20,0,0,1-2.56-3c-1.28-2.44.55-4.68,1.23-7a8.38,8.38,0,0,0,0-5.82C28.35,11.48,27.18,11.92,27.18,11.92Z"/><path class="cls-1" d="M14,12.8c-.66,5.53.46,10.72,5,14.28a52.35,52.35,0,0,0,4.84,3.11,6.19,6.19,0,0,1,2.33,2.21c.88,1.75-.55,3.68-1.85,4.62-.42.3-.24.56.19.25,1.86-1.35,3.68-3.4,2.12-5.68-1.12-1.64-3.07-2.45-4.7-3.47a15.87,15.87,0,0,1-5.6-5.2c-1.8-3.05-1-7.39-.59-10.82.06-.52-1.65.18-1.71.7Z"/><path class="cls-1" d="M31.24,15.79A1.5,1.5,0,0,1,29.75,15a2.09,2.09,0,0,1,.89-2.9c1.26-.75,2.75-.3,4,.3,1.64.81,3,2.22,5,1.87A2.85,2.85,0,0,0,41.76,11a3.44,3.44,0,0,0-3.21-3.06c-.52-.06-.48.13,0,.23a3.05,3.05,0,0,1,2.28,4c-.55,1.82-2.65,1.46-3.91.68-2-1.23-4.59-2.86-6.87-1.36a3.16,3.16,0,0,0-1.49,2.91,2.46,2.46,0,0,0,2.5,2.2,1.85,1.85,0,0,0,1.68-1.1A1.18,1.18,0,0,0,31.42,14c-.51.09-.77.57-.42.81C31.58,15.19,31.42,15.75,31.24,15.79Z"/><path class="cls-1" d="M27.84,20.87c2,4,8.26,3.17,11.16.85C42.39,19,43.13,12.94,41.51,10c0-.07-.27-.12-.25,0,.71,5.73-5.56,3-5.18,3.26,4.56,3,4.18,6.17,2.81,7.44C36.42,23,29.78,24.39,28,20.63c-.22-.47-.41-.24-.19.24Z"/><path class="cls-1" d="M11.1,15.79A1.49,1.49,0,0,0,12.58,15a2.09,2.09,0,0,0-.89-2.9c-1.26-.75-2.74-.3-4,.3-1.64.81-3,2.22-5,1.87A2.83,2.83,0,0,1,.58,11a3.43,3.43,0,0,1,3.2-3.06c.52-.06.48.13,0,.23a3.05,3.05,0,0,0-2.28,4C2,14,4.12,13.66,5.38,12.88c2-1.23,4.6-2.86,6.87-1.36a3.16,3.16,0,0,1,1.49,2.91,2.46,2.46,0,0,1-2.5,2.2,1.85,1.85,0,0,1-1.68-1.1A1.18,1.18,0,0,1,10.91,14c.51.09.77.57.42.81C10.75,15.19,10.92,15.75,11.1,15.79Z"/><path class="cls-1" d="M14.49,20.87c-2,4-8.26,3.17-11.16.85C-.06,19-.8,12.94.82,10c0-.07.27-.12.25,0-.71,5.73,5.56,3,5.18,3.26-4.55,3-4.18,6.17-2.81,7.44,2.48,2.28,9.11,3.65,10.86-.11.23-.47.41-.24.19.24Z"/><path class="cls-1" d="M13.57,21.19C8.73,24.33,7.5,32,9.28,36.78s6.21,7.49,11.15,7.81A12.76,12.76,0,0,0,30.61,41c.36-.39.23-.49-.15-.12-3,2.84-7.44,3.71-11.5,3a12,12,0,0,1-8.12-5.64,11.88,11.88,0,0,1-1.31-5.87,10.57,10.57,0,0,1,5-8.94c.44-.28-.49-2.5-.93-2.21Z"/><path class="cls-1" d="M37.11,25.84a15.58,15.58,0,0,1,1.54,1.5,5,5,0,0,1,1.43,3.76c-.44,3.17-4.59,5-6.88,2.54-.36-.38.22-1,.58-.58,1.37,1.46,3.38,1.06,4.65-.33a3.2,3.2,0,0,0,.24-4c-.58-.92-2.87-3.17-2.8-4.06,0-.52.17-.15.42.31A3.67,3.67,0,0,0,37.11,25.84Z"/><path class="cls-1" d="M35.38,39.71c1.37.63.6,1.55-.33,1.56-1.28,0-2.76-2.29-.8-4.85s6.73-1.66,8.19,1-.51,6.37-2.69,8.11c-3.19,2.54-7.78,3.7-11.73,4-.52,0-.33.41.19.37,6.16-.48,14.88-2.54,15.51-10,.62-7.23-11.53-7.93-11.29-.22a2.74,2.74,0,0,0,3.3,2.46c1.73-.23,2.54-2.31.8-3.11-.48-.21-1.63.48-1.15.7Z"/></g></g></svg>