<svg xmlns="http://www.w3.org/2000/svg" viewBox="0 0 413.57 89.39"><defs><style>.cls-1{fill:#fff;}</style></defs><title>Asset 1</title><g id="Layer_2" data-name="Layer 2"><g id="Layer_1-2" data-name="Layer 1"><path class="cls-1" d="M246.91,26.18c4.43,7.33,5.84,15.26,5.16,23.78a49.91,49.91,0,0,1-4.31,16.24A32.24,32.24,0,0,1,235,81.32a59.93,59.93,0,0,1-17.1,7.31,34.4,34.4,0,0,1-7.48.75A75.58,75.58,0,0,1,196.45,88a41.18,41.18,0,0,1-22.57-11.79,40.65,40.65,0,0,1-9.79-16.51c-3.11-9.48-2.16-18.89-.16-28.37a26.22,26.22,0,0,1,6.1-12,8.26,8.26,0,0,0,2.09-3.3c.2-.79.83-1.55.47-2.38s-1.19-.72-1.81-1.07a6,6,0,0,1-2-2,3.41,3.41,0,0,1,3.06-5.46,14,14,0,0,1,2.68.53c.62-.3.59-.8.71-1.25.89-3.19,2.86-4.6,6-4.4a3.92,3.92,0,0,1,3.28,1.89,6.8,6.8,0,0,1,1.33,3.3c0,1.94,1.16,2.42,2.75,2.57a8.09,8.09,0,0,1,1.76.36,2.62,2.62,0,0,1,1.85,3.38,5.35,5.35,0,0,1-2.18,3.2c-.6.38-1.22.75-1.73,1.06-.42.75,0,1.26.2,1.81a3.45,3.45,0,0,1-2.65,4.57,4.75,4.75,0,0,1-3.48-.47c-.82-.5-1.6-1.05-2.64-1.73a13.27,13.27,0,0,1-1.22,1.12c-2,1.39-2.8,1.36-4.8-.13-.19-.15-.34-.35-.52-.5a1,1,0,0,0-1.58,0c-2.15,2.59-4.18,5.25-5.08,8.59a74.75,74.75,0,0,0-2.6,15.19,36.07,36.07,0,0,0,2.33,15.51c1.82,4.58,3.73,9.13,7.07,12.84,6.89,7.66,15.29,12.56,25.68,13.72,1.67.19,3.33.41,5,.7,7.09,1.24,13.84-.14,20.39-2.74a46.37,46.37,0,0,0,11-6,31.2,31.2,0,0,0,7.93-8.7,47.63,47.63,0,0,0,6.77-26C250.43,37.35,248.67,32.93,246.91,26.18ZM177.12,5c-.08,2.21,1,3.49,3,3.64,1.83.13,3.93-1.36,3.95-2.81,0-2-1.62-3.95-3.32-4A3.39,3.39,0,0,0,177.12,5Zm9.12,4.26a8.61,8.61,0,0,0-1.21.08c-1.38.22-2.92,1.47-2.79,2.37.18,1.3,1.47,1.4,2.35,1.93a3.2,3.2,0,0,0,1,.32,4.19,4.19,0,0,0,4.71-2.35,1.34,1.34,0,0,0-.73-1.76A7.86,7.86,0,0,0,186.24,9.27ZM180.82,16c.19,2.86,2.11,4.57,4.66,4.15a1.46,1.46,0,0,0,1-2.2,6.68,6.68,0,0,0-4.78-2.82C181.18,15,180.85,15.44,180.82,16ZM170,8.28A3.34,3.34,0,0,0,172,11a3.09,3.09,0,0,0,3.35-.37.74.74,0,0,0,0-1,6.35,6.35,0,0,0-2.92-2.55,2,2,0,0,0-1.74.08A1.4,1.4,0,0,0,170,8.28Zm8.31,8.09c0-.36,0-.71-.07-1.06a1.54,1.54,0,0,0-2.14-1.14,2.29,2.29,0,0,0-1.48,1.4A4.57,4.57,0,0,0,174.9,19a1.43,1.43,0,0,0,2.37.27A3.63,3.63,0,0,0,178.3,16.37Zm.11-4.35a.63.63,0,0,0,.91.23c.15-.09.32-.44.26-.57-.19-.36-.57-.33-.92-.21A.36.36,0,0,0,178.41,12Z"/><path class="cls-1" d="M251,35.5a26.41,26.41,0,0,0-6.1-12,8.2,8.2,0,0,1-2.09-3.3c-.2-.79-.83-1.54-.47-2.37s1.19-.72,1.8-1.07a6,6,0,0,0,2-2,3.43,3.43,0,0,0-3.07-5.47,14,14,0,0,0-2.67.54c-.62-.31-.59-.8-.71-1.25-.89-3.19-2.86-4.6-6-4.4a3.9,3.9,0,0,0-3.28,1.89,6.8,6.8,0,0,0-1.33,3.3c0,1.94-1.16,2.42-2.76,2.57a7.46,7.46,0,0,0-1.75.36,2.61,2.61,0,0,0-1.85,3.38,5.29,5.29,0,0,0,2.18,3.19c.6.39,1.21.75,1.72,1.07.43.75,0,1.26-.19,1.8a3.46,3.46,0,0,0,2.65,4.58,4.7,4.7,0,0,0,3.48-.48c.82-.49,1.6-1,2.63-1.72a16.56,16.56,0,0,0,1.23,1.12c2,1.39,2.8,1.36,4.8-.14.19-.14.34-.34.52-.49a1,1,0,0,1,1.58,0c2.15,2.59,4.18,5.25,5.07,8.59A74.08,74.08,0,0,1,251,48.41M237.81,9.15c.08,2.21-1,3.49-3,3.64-1.83.13-3.94-1.36-4-2.81,0-2,1.63-3.95,3.32-4A3.4,3.4,0,0,1,237.81,9.15Zm-9.12,4.25a10.9,10.9,0,0,1,1.21.09c1.38.22,2.92,1.47,2.79,2.37-.18,1.29-1.48,1.4-2.36,1.93a2.9,2.9,0,0,1-1,.31,4.18,4.18,0,0,1-4.71-2.34,1.34,1.34,0,0,1,.73-1.77A8,8,0,0,1,228.69,13.4Zm5.41,6.74c-.18,2.87-2.1,4.58-4.65,4.16a1.46,1.46,0,0,1-1-2.2,6.65,6.65,0,0,1,4.78-2.82C233.75,19.18,234.08,19.58,234.1,20.14Zm10.84-7.73a3.34,3.34,0,0,1-2.05,2.71,3.07,3.07,0,0,1-3.35-.36.74.74,0,0,1,0-1,6.25,6.25,0,0,1,2.92-2.55,2.08,2.08,0,0,1,1.74.07A1.4,1.4,0,0,1,244.94,12.41Zm-8.31,8.09c0-.35,0-.7.07-1.05a1.55,1.55,0,0,1,2.14-1.15,2.33,2.33,0,0,1,1.48,1.41,4.52,4.52,0,0,1-.3,3.42,1.42,1.42,0,0,1-2.36.27A3.64,3.64,0,0,1,236.63,20.5Zm-.11-4.34a.63.63,0,0,1-.91.23c-.16-.09-.32-.45-.26-.57.19-.36.57-.33.92-.22A.37.37,0,0,1,236.52,16.16Z"/><path class="cls-1" d="M3.35,48.38a4.09,4.09,0,0,1,3.29,1.18,4,4,0,0,0,3.22,1.22c8.51,0,17-.07,25.52,0,4.43,0,8.85,0,13.29.3,5.37.32,10.78.21,16.17.17,12.82-.1,25.62-.75,38.41-1.68,4.3-.32,8.63-.38,12.94-.31,9.23.15,18.44-.39,27.67-.6,3.35-.08,6.7-.27,10-.35,1.85,0,3.58-.22,4.82-1.87a4.17,4.17,0,0,1,1.46-1,3.68,3.68,0,0,1,4.3.72,3.22,3.22,0,0,1,.76,3.63,3.48,3.48,0,0,1-3.55,2.49,3.82,3.82,0,0,1-3.17-1.43c-1.08-1.52-2.54-1.68-4.13-1.48a85.59,85.59,0,0,1-9.33.46c-5.39.09-10.78.22-16.17.32-8.5.17-17,.41-25.5.48-4.45,0-8.85.61-13.26,1s-8.61.52-12.92.63c-5.15.14-10.3.29-15.45.28-4.9,0-9.81-.33-14.72-.36C35.19,52,23.32,52,11.46,52c-.6,0-1.19.05-1.79.05a3.32,3.32,0,0,0-2.86,1.22,4.36,4.36,0,0,1-2.4,1.49,3.3,3.3,0,0,1-3.76-1.4A3.37,3.37,0,0,1,.34,50,3,3,0,0,1,3.35,48.38Z"/><path class="cls-1" d="M251.43,47.38a4.1,4.1,0,0,1,3.29,1.18,4,4,0,0,0,3.21,1.22c8.51,0,17-.07,25.52,0,4.43,0,8.86,0,13.29.3,5.37.32,10.78.21,16.17.17,12.83-.1,25.63-.75,38.42-1.68,4.29-.32,8.62-.38,12.93-.31,9.23.15,18.45-.39,27.67-.6,3.35-.08,6.7-.27,10.06-.35,1.85,0,3.57-.22,4.81-1.87a4.36,4.36,0,0,1,1.46-1,3.7,3.7,0,0,1,4.31.72,3.24,3.24,0,0,1,.75,3.63,3.48,3.48,0,0,1-3.54,2.49,3.8,3.8,0,0,1-3.17-1.43c-1.09-1.52-2.55-1.68-4.14-1.48a85.47,85.47,0,0,1-9.33.46c-5.39.09-10.78.22-16.17.32-8.5.17-17,.41-25.5.48-4.45,0-8.84.61-13.25,1s-8.61.52-12.92.63c-5.15.14-10.3.29-15.45.28-4.91,0-9.82-.33-14.73-.36C283.26,51,271.4,51,259.54,51c-.6,0-1.2.05-1.8.05a3.33,3.33,0,0,0-2.86,1.22,4.36,4.36,0,0,1-2.4,1.49,3.3,3.3,0,0,1-3.76-1.4,3.35,3.35,0,0,1-.3-3.42A3,3,0,0,1,251.43,47.38Z"/></g></g></svg>