<svg id="Layer_1" data-name="Layer 1" xmlns="http://www.w3.org/2000/svg" viewBox="0 0 30 30"><defs><style>.cls-1{fill:#fff;}.cls-2{fill:#f6881f;}</style></defs><title>2</title><circle class="cls-1" cx="15" cy="15" r="15"/><path class="cls-2" d="M19.88,23H10V21.49l4-4a29.41,29.41,0,0,0,2.38-2.61,6.55,6.55,0,0,0,.86-1.52,4.36,4.36,0,0,0,.29-1.59,2.54,2.54,0,0,0-.73-1.9,2.79,2.79,0,0,0-2-.7A5,5,0,0,0,13,9.52a6.77,6.77,0,0,0-1.86,1.11l-.9-1.15a6.9,6.9,0,0,1,4.51-1.73A4.76,4.76,0,0,1,18,8.83a3.75,3.75,0,0,1,1.2,2.91,5.65,5.65,0,0,1-.8,2.82,17.78,17.78,0,0,1-3,3.53L12.16,21.3v.08h7.72Z" transform="translate(0 0)"/></svg>