<svg id="Layer_1" data-name="Layer 1" xmlns="http://www.w3.org/2000/svg" viewBox="0 0 30 30"><defs><style>.cls-1{fill:#fff;}.cls-2{fill:#f6881f;}</style></defs><title>3</title><circle class="cls-1" cx="15" cy="15" r="15"/><path class="cls-2" d="M19.31,11.5a3.42,3.42,0,0,1-.8,2.34,4,4,0,0,1-2.29,1.22v.09a4.3,4.3,0,0,1,2.68,1.14,3.41,3.41,0,0,1,.87,2.42A3.93,3.93,0,0,1,18.29,22a6.78,6.78,0,0,1-4.23,1.16A12.25,12.25,0,0,1,11.88,23,7.11,7.11,0,0,1,10,22.35V20.74a9.48,9.48,0,0,0,2.08.73,9.21,9.21,0,0,0,2.08.25q3.89,0,3.89-3Q18,16,13.72,16H12.25V14.48h1.49a4.54,4.54,0,0,0,2.78-.77,2.54,2.54,0,0,0,1-2.15,2.12,2.12,0,0,0-.76-1.73,3.12,3.12,0,0,0-2-.62,6.24,6.24,0,0,0-1.86.27,8,8,0,0,0-2,1L10,9.31a7.49,7.49,0,0,1,2.13-1.14,7.65,7.65,0,0,1,2.54-.42,5.23,5.23,0,0,1,3.39,1A3.37,3.37,0,0,1,19.31,11.5Z" transform="translate(0 0)"/></svg>