<svg id="Layer_1" data-name="Layer 1" xmlns="http://www.w3.org/2000/svg" viewBox="0 0 30 30"><defs><style>.cls-1{fill:#fff;}.cls-2{fill:#f6881f;}</style></defs><title>5</title><circle class="cls-1" cx="15" cy="15" r="15"/><path class="cls-2" d="M14.71,13.8A5.45,5.45,0,0,1,18.43,15a4,4,0,0,1,1.36,3.21,4.63,4.63,0,0,1-1.48,3.65,5.93,5.93,0,0,1-4.08,1.33,7.43,7.43,0,0,1-3.87-.82V20.71a6,6,0,0,0,1.78.73,9.09,9.09,0,0,0,2.11.26,4.18,4.18,0,0,0,2.8-.85,3,3,0,0,0,1-2.46c0-2.1-1.28-3.14-3.84-3.14a15.26,15.26,0,0,0-2.61.3L10.72,15l.56-7h7.46V9.54h-6L12.36,14A11.79,11.79,0,0,1,14.71,13.8Z" transform="translate(0 0)"/></svg>